<?xml version="1.0" encoding="UTF-8"?>
<svg id="Ebene_2" xmlns="http://www.w3.org/2000/svg" viewBox="0 0 500.08 500.08">
  <defs>
    <style>
      .cls-1 {
        fill: #fff;
      }

      .cls-2 {
        fill: #f60;
      }
    </style>
  </defs>
  <g>
    <g>
      <circle class="cls-2" cx="250.04" cy="250.04" r="250"/>
      <g>
        <path class="cls-1" d="M85.1,143.23l8.89-50.41,16.24,2.86c4.45.79,8.28,2.5,11.48,5.15,3.2,2.65,5.47,5.99,6.82,10.02,1.35,4.03,1.63,8.34.85,12.91l-.41,2.32c-.81,4.62-2.52,8.58-5.11,11.9-2.6,3.31-5.85,5.69-9.75,7.13-3.91,1.44-8.04,1.79-12.41,1.04l-16.58-2.92ZM104.48,104.35l-5.59,31.68,4.22.75c3.48.61,6.38-.15,8.69-2.31s3.89-5.67,4.75-10.57l.38-2.18c.86-4.87.57-8.7-.86-11.5-1.43-2.8-3.94-4.51-7.52-5.15l-4.09-.72Z"/>
        <path class="cls-1" d="M151.5,154.94c-.28-.83-.45-2.02-.52-3.55-2.62,2.32-5.86,3.14-9.72,2.46-3.53-.62-6.34-2.22-8.44-4.79-2.09-2.57-2.86-5.47-2.29-8.7.72-4.06,2.76-6.87,6.12-8.42,3.37-1.55,7.91-1.82,13.64-.81l3.6.64.35-1.98c.61-3.46-.57-5.45-3.55-5.97-2.77-.49-4.4.64-4.88,3.37l-11.67-2.06c.64-3.62,2.7-6.29,6.18-8,3.48-1.72,7.61-2.15,12.39-1.31,4.78.84,8.35,2.67,10.7,5.49,2.36,2.82,3.21,6.27,2.57,10.34l-2.92,16.58c-.56,3.45-.49,6.17.2,8.17l-.1.59-11.67-2.06ZM145.54,146.03c1.46.26,2.71.16,3.78-.3,1.07-.46,1.88-1.04,2.43-1.75l1.06-5.99-3.39-.6c-4.06-.72-6.42.75-7.06,4.4-.19,1.06.02,1.98.62,2.77.6.78,1.45,1.27,2.56,1.47Z"/>
        <path class="cls-1" d="M185.36,122.28l-.39,4.46c3.18-2.94,7.05-4,11.6-3.2,3.9.69,6.61,2.37,8.13,5.04,1.52,2.67,1.9,6.36,1.14,11.05l-4.26,24.13-11.7-2.06,4.17-23.65c.33-1.89.2-3.35-.41-4.37-.6-1.02-1.91-1.71-3.92-2.07-2.28-.4-4.14.2-5.56,1.8l-4.66,26.45-11.67-2.06,6.61-37.46,10.94,1.93Z"/>
        <path class="cls-1" d="M225.35,129.33l-.39,4.46c3.18-2.94,7.05-4,11.6-3.2,3.9.69,6.61,2.37,8.12,5.04,1.52,2.67,1.9,6.36,1.14,11.05l-4.25,24.13-11.7-2.06,4.17-23.65c.33-1.89.2-3.35-.41-4.37s-1.91-1.71-3.92-2.07c-2.29-.4-4.14.2-5.57,1.8l-4.66,26.45-11.67-2.06,6.61-37.46,10.94,1.93Z"/>
        <path class="cls-1" d="M277.98,177.24l-11.7-2.06,9.38-53.18,11.7,2.06-9.38,53.18Z"/>
        <path class="cls-1" d="M297.47,180.68l-11.7-2.06,6.61-37.46,11.7,2.06-6.61,37.46ZM293.39,131.37c.29-1.66,1.13-2.92,2.52-3.77,1.39-.85,3.04-1.11,4.95-.77s3.38,1.14,4.39,2.42c1.01,1.27,1.37,2.74,1.08,4.4-.29,1.66-1.13,2.92-2.52,3.77-1.39.85-3.04,1.11-4.96.77-1.92-.34-3.38-1.14-4.39-2.42-1.01-1.27-1.37-2.74-1.08-4.4Z"/>
        <path class="cls-1" d="M322.66,185.83c-5.75-1.01-10.1-3.55-13.05-7.6-2.95-4.05-3.94-8.83-2.97-14.32l.17-.97c.68-3.83,1.98-7.09,3.92-9.77,1.94-2.68,4.41-4.58,7.41-5.71s6.38-1.36,10.12-.7c5.26.93,9.13,3.29,11.6,7.1,2.47,3.8,3.19,8.62,2.16,14.46l-.8,4.54-23.2-4.09c.04,2.17.67,3.99,1.86,5.43,1.2,1.45,2.91,2.37,5.15,2.77,3.69.65,6.81-.13,9.34-2.35l4.22,7.24c-1.81,1.75-4.15,2.99-7.03,3.71s-5.85.81-8.92.27ZM326.6,155.76c-3.42-.6-5.85,1.3-7.29,5.71l11.77,2.08.16-.9c.38-1.86.16-3.39-.65-4.6-.81-1.2-2.14-1.97-3.99-2.29Z"/>
        <path class="cls-1" d="M381.28,176.46c-1.08,6.14-3.18,10.64-6.31,13.49-3.12,2.85-6.99,3.87-11.61,3.06-3.81-.67-6.61-2.72-8.41-6.16l-1.16,3.76-10.46-1.84,9.38-53.18,11.67,2.06-3.3,18.73c2.61-2.09,5.63-2.83,9.07-2.22,4.66.82,7.97,3.13,9.92,6.92,1.95,3.79,2.39,8.73,1.32,14.8l-.1.59ZM369.71,173.66c.63-3.59.61-6.24-.08-7.94-.69-1.7-2.02-2.73-4.01-3.08-2.63-.46-4.63.22-6,2.04l-2.62,14.86c.64,2.16,2.31,3.47,5.02,3.95,2.75.48,4.72-.54,5.93-3.09.6-1.25,1.19-3.5,1.76-6.75Z"/>
        <path class="cls-1" d="M401.18,199.68c-5.75-1.01-10.1-3.55-13.04-7.6-2.95-4.05-3.94-8.83-2.97-14.32l.17-.97c.68-3.83,1.98-7.09,3.92-9.77,1.94-2.68,4.41-4.58,7.42-5.71s6.38-1.36,10.12-.7c5.26.93,9.13,3.29,11.6,7.1,2.47,3.8,3.19,8.62,2.16,14.46l-.8,4.54-23.2-4.09c.04,2.17.67,3.99,1.86,5.43,1.2,1.45,2.91,2.37,5.15,2.77,3.69.65,6.81-.13,9.34-2.35l4.22,7.24c-1.81,1.75-4.15,2.99-7.03,3.71-2.88.72-5.85.81-8.92.27ZM405.13,169.6c-3.42-.6-5.85,1.3-7.29,5.71l11.77,2.08.16-.9c.38-1.86.16-3.39-.65-4.6-.81-1.2-2.14-1.97-3.99-2.29Z"/>
        <path class="cls-1" d="M449.19,179.69l-3.79-.95c-3.67-.65-6.23.09-7.67,2.22l-4.18,23.72-11.67-2.06,6.61-37.46,10.94,1.93-.47,4.88c2.61-3.32,5.67-4.68,9.18-4.06,1.25.22,2.31.55,3.18.99l-2.12,10.8Z"/>
      </g>
      <g>
        <path class="cls-1" d="M129.34,420.68l1.84-10.41-1.9-.33.37-2.08,1.9.34.2-1.14c.24-1.38.82-2.39,1.72-3,.9-.62,2.05-.8,3.43-.56.49.09,1,.25,1.53.48l-.46,2.18c-.3-.12-.65-.21-1.06-.28-1.34-.24-2.13.33-2.37,1.71l-.2,1.11,2.54.45-.37,2.08-2.54-.45-1.84,10.41-2.8-.49Z"/>
        <path class="cls-1" d="M144.19,423.3c-.08-.26-.12-.67-.12-1.22-1.06.77-2.23,1.05-3.52.82-1.25-.22-2.21-.76-2.88-1.61-.67-.86-.91-1.81-.72-2.86.23-1.33.91-2.27,2.02-2.8s2.59-.64,4.43-.32l1.72.3.14-.82c.11-.65.02-1.2-.27-1.65s-.81-.74-1.55-.87c-.64-.11-1.19-.04-1.65.2-.46.25-.74.62-.83,1.11l-2.8-.49c.12-.68.46-1.29,1.02-1.8.56-.52,1.26-.88,2.1-1.08.84-.2,1.74-.22,2.7-.05,1.46.26,2.56.83,3.3,1.72.74.89,1,2,.79,3.33l-.99,5.63c-.2,1.12-.2,2.05,0,2.77l-.04.2-2.86-.5ZM141.47,420.73c.55.1,1.1.06,1.63-.13.54-.18.97-.48,1.29-.89l.42-2.35-1.51-.27c-1.04-.18-1.85-.14-2.44.13s-.94.73-1.06,1.4c-.09.54,0,1,.31,1.38.3.38.75.63,1.35.73Z"/>
        <path class="cls-1" d="M152.5,424.76l-2.8-.49,3.13-17.73,2.8.49-3.13,17.73Z"/>
        <path class="cls-1" d="M163.15,423.14c.09-.5-.05-.92-.42-1.25-.37-.33-1.01-.69-1.93-1.05-.92-.37-1.67-.76-2.25-1.18-1.28-.92-1.81-2.03-1.58-3.31.19-1.08.8-1.9,1.84-2.46,1.04-.56,2.25-.72,3.65-.47,1.49.26,2.63.85,3.42,1.75s1.08,1.94.87,3.12l-2.8-.49c.09-.54-.03-1.02-.36-1.45-.34-.43-.84-.7-1.5-.82-.62-.11-1.14-.05-1.58.16-.44.22-.7.56-.78,1.04-.08.43.05.8.37,1.1.32.3,1.01.67,2.07,1.11,1.06.44,1.87.88,2.44,1.32.57.45.96.93,1.18,1.45.22.52.27,1.12.15,1.79-.2,1.12-.82,1.95-1.88,2.48s-2.33.67-3.84.4c-1.02-.18-1.9-.53-2.64-1.04-.74-.51-1.27-1.13-1.6-1.85s-.43-1.46-.3-2.21l2.72.48c-.08.67.08,1.22.48,1.66.4.44.98.73,1.74.86.74.13,1.33.09,1.76-.12.44-.21.69-.55.77-1Z"/>
        <path class="cls-1" d="M173.24,426.35c.7.12,1.32.02,1.85-.3s.87-.79,1.01-1.38l2.64.47c-.17.77-.54,1.45-1.11,2.05-.57.59-1.28,1.02-2.13,1.27-.85.25-1.72.3-2.62.14-1.75-.31-3.03-1.12-3.86-2.43-.82-1.31-1.06-2.96-.71-4.96l.05-.29c.33-1.9,1.11-3.33,2.33-4.3,1.22-.96,2.7-1.29,4.46-.98,1.49.26,2.62.91,3.4,1.94s1.07,2.25.87,3.67l-2.64-.47c.1-.72-.05-1.35-.42-1.9-.38-.54-.92-.88-1.63-1-.91-.16-1.67.05-2.27.62-.61.57-1.04,1.53-1.28,2.86l-.08.45c-.24,1.35-.17,2.41.2,3.16.37.75,1.02,1.21,1.94,1.37Z"/>
        <path class="cls-1" d="M184.85,419c1.1-.9,2.35-1.23,3.75-.98,2.66.47,3.74,2.23,3.25,5.27l-1.44,8.16-2.8-.49,1.42-8.06c.15-.86.07-1.5-.24-1.93-.31-.42-.83-.7-1.55-.83-1.12-.2-2.05.15-2.78,1.06l-1.57,8.92-2.8-.5,3.13-17.73,2.8.5-1.16,6.6Z"/>
        <path class="cls-1" d="M199.75,426.89l-6.06-1.07.4-2.26,6.06,1.07-.4,2.26Z"/>
        <path class="cls-1" d="M212.65,431.38l3.5-8.27,2.74.48-5.61,11.89-2.31-.41-1.17-9.05-4.14,8.11-2.31-.41-1.21-13.09,2.74.48.52,8.88,4.07-8.08,2.11.37,1.08,9.08Z"/>
        <path class="cls-1" d="M226.03,437.73c-.08-.26-.12-.67-.12-1.22-1.06.77-2.23,1.05-3.52.82-1.25-.22-2.21-.76-2.88-1.61-.67-.86-.91-1.81-.72-2.86.24-1.33.91-2.27,2.02-2.8,1.11-.54,2.59-.64,4.43-.32l1.72.3.14-.82c.11-.65.02-1.2-.27-1.65s-.81-.74-1.55-.87c-.64-.11-1.19-.04-1.65.2-.46.25-.74.62-.83,1.11l-2.8-.49c.12-.68.46-1.29,1.02-1.8.56-.52,1.26-.88,2.1-1.08.84-.2,1.74-.22,2.7-.05,1.46.26,2.56.83,3.3,1.72.74.89,1,2,.79,3.33l-.99,5.63c-.2,1.12-.2,2.05,0,2.77l-.04.2-2.86-.5ZM223.3,435.16c.55.1,1.1.06,1.63-.13.54-.18.97-.48,1.29-.89l.42-2.35-1.51-.27c-1.04-.18-1.85-.14-2.44.13s-.94.73-1.06,1.4c-.09.54,0,1,.31,1.38.3.38.75.63,1.35.73ZM222.37,420.83c.07-.38.25-.69.56-.9.3-.22.68-.28,1.14-.2.45.08.79.27,1,.58.22.31.29.65.22,1.04-.07.38-.26.68-.56.9-.31.22-.69.28-1.14.2-.45-.08-.79-.27-1-.58-.21-.31-.28-.65-.21-1.04ZM227.64,421.77c.07-.38.25-.68.56-.9.3-.22.68-.29,1.14-.21s.79.27,1,.58.29.65.22,1.04-.26.69-.56.9c-.31.21-.69.28-1.14.2s-.79-.27-1-.58-.28-.65-.22-1.04Z"/>
        <path class="cls-1" d="M236.08,428.03c1.1-.9,2.35-1.23,3.75-.98,2.66.47,3.74,2.23,3.25,5.27l-1.44,8.16-2.8-.49,1.42-8.06c.15-.86.07-1.5-.24-1.93-.31-.42-.83-.7-1.55-.83-1.12-.2-2.05.15-2.78,1.06l-1.57,8.92-2.8-.5,3.12-17.73,2.8.5-1.16,6.6Z"/>
        <path class="cls-1" d="M247.46,441.51l-2.8-.49,3.13-17.73,2.8.49-3.13,17.73Z"/>
        <path class="cls-1" d="M255.97,443.25c-1.78-.31-3.12-1.13-4.03-2.44-.91-1.31-1.2-2.9-.87-4.76l.06-.35c.22-1.25.66-2.32,1.31-3.21.65-.9,1.46-1.54,2.43-1.93.97-.39,1.98-.5,3.05-.31,1.7.3,2.92,1.07,3.65,2.32.74,1.25.93,2.87.58,4.85l-.2,1.13-8.16-1.44c-.1,1.05.1,1.92.6,2.63s1.21,1.14,2.12,1.3c1.28.23,2.42-.11,3.41-1l1.26,1.71c-.63.66-1.4,1.12-2.31,1.38-.91.26-1.88.3-2.92.12ZM257.52,432.49c-.77-.14-1.44.02-2.01.48s-1,1.15-1.3,2.09l5.34.94.04-.21c.1-.95-.02-1.7-.38-2.26-.35-.56-.92-.91-1.7-1.04Z"/>
        <path class="cls-1" d="M268,432.25l-.17,1.46c1.12-.95,2.43-1.3,3.93-1.03,2.6.46,3.66,2.18,3.18,5.17l-1.46,8.25-2.8-.49,1.43-8.09c.14-.79.07-1.41-.2-1.85s-.8-.73-1.58-.87c-1.13-.2-2.06.16-2.8,1.09l-1.57,8.89-2.8-.5,2.2-12.49,2.64.47Z"/>
        <path class="cls-1" d="M278.61,443.95c.52.09.9.31,1.13.66.23.35.31.74.23,1.19-.08.44-.28.78-.62,1.01-.34.24-.76.31-1.29.22-.5-.09-.87-.3-1.11-.64s-.32-.73-.25-1.17c.08-.45.29-.79.62-1.04s.76-.32,1.28-.23Z"/>
        <path class="cls-1" d="M283.53,441.34c.34-1.92,1.06-3.39,2.16-4.4,1.1-1.01,2.4-1.38,3.9-1.12,1.32.23,2.31.88,2.96,1.95l1.13-6.39,2.8.5-3.12,17.73-2.54-.45.09-1.32c-1.02.87-2.23,1.18-3.63.93-1.46-.26-2.54-1.05-3.24-2.39-.7-1.34-.87-3.02-.51-5.04ZM286.29,442.07c-.22,1.27-.15,2.3.21,3.1.36.8.99,1.28,1.89,1.43,1.15.2,2.08-.16,2.79-1.09l.94-5.33c-.34-1.09-1.08-1.74-2.23-1.94-.91-.16-1.67.08-2.29.71-.62.63-1.06,1.67-1.31,3.12Z"/>
        <path class="cls-1" d="M301.74,451.32c-1.78-.31-3.12-1.13-4.03-2.44-.91-1.31-1.2-2.9-.87-4.76l.06-.35c.22-1.25.66-2.32,1.31-3.21.65-.9,1.46-1.54,2.43-1.93.96-.39,1.98-.5,3.05-.31,1.7.3,2.92,1.07,3.65,2.32.74,1.25.93,2.87.58,4.85l-.2,1.13-8.16-1.44c-.1,1.05.1,1.92.6,2.63.5.71,1.21,1.14,2.12,1.3,1.29.23,2.42-.11,3.41-1l1.26,1.71c-.63.66-1.4,1.12-2.31,1.38-.91.26-1.88.31-2.92.12ZM303.29,440.56c-.77-.14-1.44.02-2.01.48-.57.46-1,1.15-1.3,2.09l5.34.94.04-.21c.1-.95-.02-1.7-.37-2.26-.35-.56-.92-.91-1.7-1.04Z"/>
      </g>
      <g>
        <path class="cls-1" d="M141.82,345.09l7.67-21.42,11.18,1.97-15.43,35.9-9.87-1.74-2.28-23.32-10.15,21.13-9.87-1.74-2.22-39.02,11.18,1.97-.28,23.26,9.94-21.56,8.14,1.43,1.99,23.13Z"/>
        <path class="cls-1" d="M179.34,367.56c-.28-.83-.45-2.02-.52-3.55-2.62,2.32-5.86,3.14-9.72,2.46-3.53-.62-6.34-2.22-8.44-4.79-2.09-2.57-2.86-5.47-2.29-8.7.72-4.06,2.76-6.87,6.12-8.42,3.37-1.55,7.91-1.82,13.64-.81l3.6.63.35-1.98c.61-3.46-.57-5.45-3.55-5.97-2.77-.49-4.4.64-4.88,3.37l-11.67-2.06c.64-3.62,2.7-6.29,6.18-8,3.48-1.72,7.61-2.15,12.39-1.31,4.78.84,8.35,2.67,10.7,5.49s3.21,6.27,2.57,10.34l-2.92,16.58c-.56,3.45-.49,6.17.2,8.17l-.1.59-11.67-2.06ZM167.53,316.74c.22-1.27.92-2.27,2.08-2.99,1.16-.72,2.48-.96,3.96-.69,1.48.26,2.64.93,3.48,2.01s1.16,2.25.93,3.52c-.22,1.27-.92,2.27-2.08,2.99-1.16.72-2.48.95-3.96.69-1.48-.26-2.64-.93-3.48-2.01-.85-1.08-1.16-2.25-.93-3.52ZM173.38,358.65c1.45.26,2.71.16,3.78-.3,1.07-.46,1.88-1.04,2.43-1.75l1.06-5.99-3.39-.6c-4.06-.72-6.42.75-7.06,4.4-.19,1.06.02,1.98.62,2.77.6.78,1.45,1.27,2.56,1.47ZM185.49,319.91c.22-1.27.92-2.27,2.08-2.99,1.16-.72,2.48-.95,3.96-.69,1.48.26,2.64.93,3.48,2.01.85,1.08,1.16,2.25.93,3.52s-.92,2.27-2.08,2.99c-1.16.72-2.48.95-3.96.69-1.48-.26-2.64-.93-3.48-2.01-.85-1.08-1.16-2.25-.93-3.52Z"/>
        <path class="cls-1" d="M213.18,339.04c3.05-2.7,6.51-3.71,10.39-3.02,4.13.73,7.03,2.5,8.7,5.32,1.67,2.82,2.11,6.62,1.31,11.4l-4.17,23.65-11.7-2.06,4.12-23.37c.35-1.99.2-3.52-.44-4.59-.64-1.08-1.93-1.79-3.87-2.13-2.4-.42-4.23.04-5.49,1.39l-4.74,26.87-11.67-2.06,9.38-53.18,11.67,2.06-3.48,19.73Z"/>
        <path class="cls-1" d="M248.21,379.7l-11.7-2.06,9.38-53.18,11.7,2.06-9.38,53.18Z"/>
        <path class="cls-1" d="M273.39,384.85c-5.75-1.01-10.1-3.55-13.05-7.6-2.95-4.05-3.94-8.83-2.97-14.32l.17-.97c.68-3.83,1.98-7.09,3.92-9.77s4.41-4.58,7.41-5.71,6.38-1.36,10.12-.7c5.26.93,9.13,3.29,11.6,7.1,2.47,3.8,3.19,8.63,2.16,14.46l-.8,4.54-23.2-4.09c.04,2.17.67,3.99,1.86,5.43s2.91,2.37,5.15,2.76c3.69.65,6.81-.13,9.34-2.35l4.22,7.24c-1.81,1.75-4.15,2.99-7.03,3.71s-5.85.81-8.92.27ZM277.34,354.78c-3.42-.6-5.85,1.3-7.29,5.71l11.77,2.08.16-.9c.38-1.86.16-3.39-.65-4.6-.81-1.2-2.14-1.97-3.99-2.29Z"/>
        <path class="cls-1" d="M311.31,352.2l-.39,4.46c3.18-2.94,7.05-4,11.6-3.2,3.9.69,6.61,2.37,8.13,5.04,1.52,2.67,1.9,6.36,1.14,11.05l-4.25,24.13-11.7-2.06,4.17-23.65c.33-1.89.2-3.35-.41-4.37-.61-1.02-1.91-1.71-3.92-2.07-2.29-.4-4.14.2-5.57,1.8l-4.66,26.45-11.67-2.06,6.61-37.46,10.94,1.93Z"/>
        <path class="cls-1" d="M343.2,384.77c1.85.33,3.28,1.14,4.31,2.46,1.03,1.31,1.39,2.82,1.09,4.53-.3,1.71-1.16,3-2.58,3.88-1.42.88-3.05,1.16-4.89.83-1.87-.33-3.31-1.16-4.33-2.48s-1.38-2.83-1.08-4.51,1.15-2.97,2.56-3.87c1.41-.89,3.04-1.18,4.92-.85Z"/>
      </g>
      <g>
        <polygon class="cls-1" points="463.81 350.87 36.27 275.48 36.27 149.21 463.81 224.6 463.81 350.87"/>
        <g>
          <path class="cls-2" d="M113.03,233.59l-28.5-5.03v30.11s-17.67-3.12-17.67-3.12v-75.6s49.05,8.65,49.05,8.65v14.07s-31.37-5.53-31.37-5.53v17.39s28.5,5.03,28.5,5.03v14.02Z"/>
          <path class="cls-2" d="M155.22,257.02l-24.22-4.27-4.23,13.38-18.88-3.33,26.89-70.85,16.62,2.93,27.09,80.37-18.98-3.35-4.28-14.88ZM135.23,239.43l15.76,2.78-7.91-27.61-7.86,24.83Z"/>
          <path class="cls-2" d="M201.5,265.29l30.77,5.43v14.02s-48.44-8.54-48.44-8.54v-75.6s17.67,3.12,17.67,3.12v61.58Z"/>
          <path class="cls-2" d="M277.54,272.62c0-2.67-.91-4.9-2.74-6.71-1.83-1.81-5.04-3.92-9.64-6.32-4.6-2.4-8.36-4.61-11.28-6.61-9.5-6.49-14.25-13.94-14.25-22.35,0-4.19,1.18-7.67,3.55-10.46,2.37-2.78,5.72-4.69,10.05-5.71,4.33-1.02,9.2-1.05,14.6-.1s10,2.73,14.17,5.41c4.18,2.68,7.43,6.01,9.74,10,2.32,3.99,3.47,8.29,3.47,12.89l-17.62-3.11c0-3.08-.91-5.63-2.74-7.65-1.83-2.02-4.31-3.3-7.43-3.85s-5.65-.28-7.48.84c-1.83,1.11-2.74,2.78-2.74,4.99s1.01,3.87,3.02,5.8c2.01,1.93,5.56,4.18,10.62,6.75,5.07,2.57,9.23,5.12,12.49,7.63,7.92,6.1,11.88,13.29,11.88,21.57,0,6.61-2.42,11.38-7.25,14.3-4.83,2.92-11.46,3.64-19.89,2.15-5.94-1.05-11.32-3.09-16.14-6.14-4.82-3.05-8.44-6.7-10.88-10.95-2.43-4.25-3.65-8.87-3.65-13.86l17.72,3.13c0,4.05,1.01,7.21,3.05,9.49,2.03,2.28,5.33,3.82,9.89,4.63,2.92.51,5.23.27,6.92-.73,1.69-1,2.54-2.67,2.54-5.03Z"/>
          <path class="cls-2" d="M363.59,282.29c-.23,5.22-1.61,9.62-4.13,13.21-2.52,3.59-6.05,6.09-10.6,7.5-4.55,1.41-9.74,1.6-15.58.57-9.64-1.7-17.22-6.27-22.76-13.72-5.54-7.45-8.31-17.08-8.31-28.88v-3.74c0-7.41,1.25-13.67,3.75-18.78,2.5-5.11,6.1-8.77,10.8-10.97,4.7-2.2,10.14-2.76,16.31-1.67,8.9,1.57,16.05,5.24,21.45,11.03s8.48,12.98,9.21,21.59l-17.62-3.11c-.13-4.63-1.26-8.13-3.37-10.51-2.11-2.38-5.34-3.95-9.67-4.72s-7.62.35-9.67,3.38c-2.05,3.03-3.12,8.26-3.22,15.68v5.35c0,8.07.98,14,2.95,17.81,1.96,3.81,5.35,6.13,10.15,6.98,4.06.72,7.17.28,9.32-1.32s3.29-4.53,3.42-8.79l17.57,3.1Z"/>
          <path class="cls-2" d="M433.23,320.17l-17.57-3.1v-31.57s-26.03-4.59-26.03-4.59v31.57s-17.67-3.12-17.67-3.12v-75.6s17.67,3.12,17.67,3.12v30.01s26.03,4.59,26.03,4.59v-30.01s17.57,3.1,17.57,3.1v75.6Z"/>
        </g>
      </g>
    </g>
  </g>
</svg>